# xmcd CD database file
#
# Track frame offsets:
#	150
#	13250
#	25105
#	40675
#	58972
#	80875
#	93120
#	109882
#	124090
#	141612
#	152787
#	164295
#	173575
#	191767
#	205435
#	221390
#	238862
#	256215
#	268175
#
# Disc length: 3696 seconds
#
# Revision: 2
# Processed by: cddbd v1.5.2PL0 Copyright (c) Steve Scherf et al.
# Submitted via: CDex 1.51
#
DISCID=180e6e13
DTITLE=Duke Ellington - Blues In Orbit  (Duke Ellington et ses Awards Winners)
DYEAR=1959
DGENRE=Jazz
TTITLE0=Three J's Blues 
TTITLE1=Smada 
TTITLE2=Pie Eye's Blues
TTITLE3=Sweet and Pungent
TTITLE4=C Jam Blues
TTITLE5=In A Mellow Tone
TTITLE6=Blues In Blueprint 
TTITLE7=The Swingers Get The Blues, Too
TTITLE8=The Swinger's Jump
TTITLE9=Blues In Orbit
TTITLE10=Villes Ville Is The Place, Man
TTITLE11=Track 360 
TTITLE12=Sentimental Lady
TTITLE13=Brown Penny 
TTITLE14=Pie Eye's Blues  (Alternate Take)
TTITLE15=Sweet and Pungent  (Alternate Take)
TTITLE16=The Swinger's Jump  (Alternate Take) 
TTITLE17=Blues In Orbit  (Alternate Take)
TTITLE18=Track 360  (Alternate Take)
EXTD=YEAR: 1959
EXTT0=
EXTT1=
EXTT2=
EXTT3=
EXTT4=
EXTT5=
EXTT6=
EXTT7=
EXTT8=
EXTT9=
EXTT10=
EXTT11=
EXTT12=
EXTT13=
EXTT14=
EXTT15=
EXTT16=
EXTT17=
EXTT18=
PLAYORDER=
